<svg xmlns="http://www.w3.org/2000/svg" xmlns:xlink="http://www.w3.org/1999/xlink" width="1200" height="1200" viewBox="0 0 512 512" fill="none" class="h-full w-full" id="iconWithBackground"><rect id="r4" width="512" height="512" x="0" y="0" rx="80" fill="#c455f7" stroke="#000000" stroke-width="0" stroke-opacity="100%" paint-order="stroke"/><defs><linearGradient id="linearGradient-iconWithBackground" gradientUnits="userSpaceOnUse" gradientTransform="rotate(0)" style="transform-origin: center center;"><stop stop-color="#9a031e"/><stop offset="1" stop-color="#5f0f40"/></linearGradient><radialGradient id="glare" cx="0" cy="0" r="1" gradientUnits="userSpaceOnUse" gradientTransform="translate(256) rotate(90) scale(512)"><stop stop-color="white"/><stop offset="1" stop-color="white" stop-opacity="0"/></radialGradient><clipPath id="clip"><use xlink:href="#r4"/></clipPath></defs><svg xmlns="http://www.w3.org/2000/svg" xmlns:xlink="http://www.w3.org/1999/xlink" aria-hidden="true" role="img" x="56" y="56" class="iconify iconify--material-symbols-light" width="400" height="400" viewBox="0 0 24 24" style="color: rgb(255, 255, 255);"><path fill="currentColor" d="M5.23 14v2H4V8.154L6.162 2h11.676L20 8.154V16h-1.23v-2zm.185-6.846h13.17L17.112 3H6.888zm2.013 4.538q.466 0 .788-.326q.322-.327.322-.794t-.326-.788q-.327-.322-.793-.322t-.79.326q-.321.327-.321.793t.326.79q.327.321.794.321m9.153 0q.467 0 .79-.326q.321-.327.321-.794t-.326-.788q-.327-.322-.794-.322t-.788.326q-.322.327-.322.793t.326.79q.327.321.793.321m-3.716 10.962L7.75 20.077h3.385v-1.73l5.115 2.576h-3.385z"/></svg></svg>